<svg id="visual" viewBox="0 0 3840 100" width="3840" height="100" xmlns="http://www.w3.org/2000/svg" xmlns:xlink="http://www.w3.org/1999/xlink" version="1.1"><rect x="0" y="0" width="3840" height="100" fill="#39FF14"></rect><path d="M0 18L20.7 24C41.3 30 82.7 42 124 47C165.3 52 206.7 50 248 53.2C289.3 56.3 330.7 64.7 371.8 68.3C413 72 454 71 495.2 59.3C536.3 47.7 577.7 25.3 619 21.2C660.3 17 701.7 31 743 38.3C784.3 45.7 825.7 46.3 867 48C908.3 49.7 949.7 52.3 991 46.2C1032.3 40 1073.7 25 1115 30C1156.3 35 1197.7 60 1239 58.7C1280.3 57.3 1321.7 29.7 1362.8 21.2C1404 12.7 1445 23.3 1486.2 27.5C1527.3 31.7 1568.7 29.3 1610 36.3C1651.3 43.3 1692.7 59.7 1734 55.5C1775.3 51.3 1816.7 26.7 1858 25.3C1899.3 24 1940.7 46 1982 58.8C2023.3 71.7 2064.7 75.3 2106 68C2147.3 60.7 2188.7 42.3 2230 43.3C2271.3 44.3 2312.7 64.7 2353.8 61.2C2395 57.7 2436 30.3 2477.2 22.3C2518.3 14.3 2559.7 25.7 2601 27.7C2642.3 29.7 2683.7 22.3 2725 27.2C2766.3 32 2807.7 49 2849 60.7C2890.3 72.3 2931.7 78.7 2973 76.7C3014.3 74.7 3055.7 64.3 3097 58C3138.3 51.7 3179.7 49.3 3221 49.2C3262.3 49 3303.7 51 3344.8 53.2C3386 55.3 3427 57.7 3468.2 50.5C3509.3 43.3 3550.7 26.7 3592 17.3C3633.3 8 3674.7 6 3716 17.5C3757.3 29 3798.7 54 3819.3 66.5L3840 79L3840 101L3819.3 101C3798.7 101 3757.3 101 3716 101C3674.7 101 3633.3 101 3592 101C3550.7 101 3509.3 101 3468.2 101C3427 101 3386 101 3344.8 101C3303.7 101 3262.3 101 3221 101C3179.7 101 3138.3 101 3097 101C3055.7 101 3014.3 101 2973 101C2931.7 101 2890.3 101 2849 101C2807.7 101 2766.3 101 2725 101C2683.7 101 2642.3 101 2601 101C2559.7 101 2518.3 101 2477.2 101C2436 101 2395 101 2353.8 101C2312.7 101 2271.3 101 2230 101C2188.7 101 2147.3 101 2106 101C2064.7 101 2023.3 101 1982 101C1940.7 101 1899.3 101 1858 101C1816.7 101 1775.3 101 1734 101C1692.7 101 1651.3 101 1610 101C1568.7 101 1527.3 101 1486.2 101C1445 101 1404 101 1362.8 101C1321.7 101 1280.3 101 1239 101C1197.7 101 1156.3 101 1115 101C1073.7 101 1032.3 101 991 101C949.7 101 908.3 101 867 101C825.7 101 784.3 101 743 101C701.7 101 660.3 101 619 101C577.7 101 536.3 101 495.2 101C454 101 413 101 371.8 101C330.7 101 289.3 101 248 101C206.7 101 165.3 101 124 101C82.7 101 41.3 101 20.7 101L0 101Z" fill="#343A40" stroke-linecap="round" stroke-linejoin="miter"></path></svg>