<svg id="visual" viewBox="0 0 3840 100" width="3840" height="100" xmlns="http://www.w3.org/2000/svg" xmlns:xlink="http://www.w3.org/1999/xlink" version="1.1"><path d="M0 11L22.8 19.8C45.7 28.7 91.3 46.3 137 48.5C182.7 50.7 228.3 37.3 274 37.3C319.7 37.3 365.3 50.7 411.2 59.3C457 68 503 72 548.8 68.5C594.7 65 640.3 54 686 54.3C731.7 54.7 777.3 66.3 823 70.8C868.7 75.3 914.3 72.7 960 65.8C1005.7 59 1051.3 48 1097 39.8C1142.7 31.7 1188.3 26.3 1234 28.2C1279.7 30 1325.3 39 1371.2 44.8C1417 50.7 1463 53.3 1508.8 60.8C1554.7 68.3 1600.3 80.7 1646 84.2C1691.7 87.7 1737.3 82.3 1783 77C1828.7 71.7 1874.3 66.3 1920 62C1965.7 57.7 2011.3 54.3 2057 59C2102.7 63.7 2148.3 76.3 2194 76.3C2239.7 76.3 2285.3 63.7 2331.2 49.7C2377 35.7 2423 20.3 2468.8 14.2C2514.7 8 2560.3 11 2606 19.8C2651.7 28.7 2697.3 43.3 2743 52.5C2788.7 61.7 2834.3 65.3 2880 56.7C2925.7 48 2971.3 27 3017 27C3062.7 27 3108.3 48 3154 58.5C3199.7 69 3245.3 69 3291.2 59.2C3337 49.3 3383 29.7 3428.8 30C3474.7 30.3 3520.3 50.7 3566 52.2C3611.7 53.7 3657.3 36.3 3703 26.2C3748.7 16 3794.3 13 3817.2 11.5L3840 10L3840 101L3817.2 101C3794.3 101 3748.7 101 3703 101C3657.3 101 3611.7 101 3566 101C3520.3 101 3474.7 101 3428.8 101C3383 101 3337 101 3291.2 101C3245.3 101 3199.7 101 3154 101C3108.3 101 3062.7 101 3017 101C2971.3 101 2925.7 101 2880 101C2834.3 101 2788.7 101 2743 101C2697.3 101 2651.7 101 2606 101C2560.3 101 2514.7 101 2468.8 101C2423 101 2377 101 2331.2 101C2285.3 101 2239.7 101 2194 101C2148.3 101 2102.7 101 2057 101C2011.3 101 1965.7 101 1920 101C1874.3 101 1828.7 101 1783 101C1737.3 101 1691.7 101 1646 101C1600.3 101 1554.7 101 1508.8 101C1463 101 1417 101 1371.2 101C1325.3 101 1279.7 101 1234 101C1188.3 101 1142.7 101 1097 101C1051.3 101 1005.7 101 960 101C914.3 101 868.7 101 823 101C777.3 101 731.7 101 686 101C640.3 101 594.7 101 548.8 101C503 101 457 101 411.2 101C365.3 101 319.7 101 274 101C228.3 101 182.7 101 137 101C91.3 101 45.7 101 22.8 101L0 101Z" fill="#000000" stroke-linecap="round" stroke-linejoin="miter"></path></svg>